<?xml version="1.0" encoding="UTF-8"?>
<svg xmlns="http://www.w3.org/2000/svg" xmlns:xlink="http://www.w3.org/1999/xlink" width="652.30957" height="525.101562" viewBox="0 0 652.30957 525.101562">
<defs>
<clipPath id="clip-0">
<path clip-rule="nonzero" d="M 0.210938 0 L 651.40625 0 L 651.40625 400 L 0.210938 400 Z M 0.210938 0 "/>
</clipPath>
<clipPath id="clip-1">
<path clip-rule="nonzero" d="M 48 387 L 185 387 L 185 524.203125 L 48 524.203125 Z M 48 387 "/>
</clipPath>
</defs>
<g clip-path="url(#clip-0)">
<path fill-rule="nonzero" fill="rgb(78.823853%, 38.038635%, 18.03894%)" fill-opacity="1" d="M 356.101562 0 C 379.460938 63.71875 406.769531 127 432.972656 189.648438 C 481.109375 168.066406 556.160156 49.328125 583.589844 0.472656 L 651.40625 1.816406 C 576.476562 163.679688 452.339844 286.253906 285.082031 357.003906 C 266.941406 364.671875 194.144531 382.027344 184.855469 387.203125 C 156.914062 388.707031 130.632812 392.699219 102.96875 396.53125 C 70.640625 399.300781 33.570312 398.984375 0.765625 399.496094 L 0.210938 337.757812 C 47.875 338.507812 85.539062 338.070312 132.570312 330.878906 C 176.242188 220.125 221.136719 109.882812 267.257812 0.15625 Z M 310.136719 81.859375 C 280.8125 157.710938 250.699219 233.246094 219.792969 308.464844 C 254.886719 308.742188 348.316406 261.746094 373.292969 237.277344 C 352.585938 185.339844 331.519531 133.519531 310.136719 81.859375 Z M 310.136719 81.859375 "/>
<path fill-rule="nonzero" fill="rgb(78.823853%, 38.038635%, 18.03894%)" fill-opacity="1" d="M 583.589844 0.472656 L 651.40625 1.816406 C 576.476562 163.679688 452.335938 286.253906 285.082031 357.003906 C 266.941406 364.671875 194.144531 382.027344 184.855469 387.203125 C 156.914062 388.707031 130.632812 392.699219 102.96875 396.53125 C 70.640625 399.300781 33.570312 398.984375 0.765625 399.496094 L 0.210938 337.757812 C 47.875 338.507812 85.539062 338.070312 132.570312 330.878906 C 155.769531 329.414062 200.546875 321.628906 219.792969 308.464844 C 254.886719 308.742188 348.316406 261.746094 373.296875 237.277344 C 388.945312 232.613281 421.550781 202.457031 432.972656 189.648438 C 481.109375 168.066406 556.160156 49.328125 583.589844 0.472656 Z M 583.589844 0.472656 "/>
</g>
<path fill-rule="nonzero" fill="rgb(78.823853%, 38.038635%, 18.03894%)" fill-opacity="1" d="M 473.726562 285.339844 C 482.34375 299.925781 500.800781 347.636719 508.191406 365.304688 L 574.308594 523.171875 L 509.929688 523.253906 L 497.402344 522.699219 C 481.316406 513.210938 422.429688 355.855469 412.113281 329.964844 Z M 473.726562 285.339844 "/>
<g clip-path="url(#clip-1)">
<path fill-rule="nonzero" fill="rgb(78.823853%, 38.038635%, 18.03894%)" fill-opacity="1" d="M 102.976562 396.535156 C 130.644531 392.699219 156.925781 388.707031 184.867188 387.207031 L 131.789062 523.257812 L 48.714844 524.207031 C 66.066406 483.414062 84.640625 436.335938 102.976562 396.535156 Z M 102.976562 396.535156 "/>
</g>
</svg>
