<svg xmlns="http://www.w3.org/2000/svg" viewBox="0 0 120 120" role="img" aria-label="Salma">
  <defs>
    <linearGradient id="sg" x1="0" y1="0" x2="0" y2="1">
      <stop offset="0" stop-color="#7d4a3a"/>
      <stop offset="1" stop-color="#522f2a"/>
    </linearGradient>
  </defs>
  <rect width="120" height="120" fill="url(#sg)"/>
  <path d="M40 50a20 20 0 0 1 40 0v10a20 20 0 0 1-40 0z" fill="#e9c9a8"/>
  <path d="M38 48c0-15 9-24 22-24s22 9 22 24c0 6-3 9-3 9l-3-12c-6 5-22 7-30 2l-2 10s-6-2-6-9z" fill="#2c1b17"/>
  <path d="M26 104c2-17 16-27 34-27s32 10 34 27z" fill="#f0d9bf"/>
</svg>
