<svg xmlns="http://www.w3.org/2000/svg" viewBox="0 0 120 120" role="img" aria-label="Yassine">
  <defs>
    <linearGradient id="yg" x1="0" y1="0" x2="0" y2="1">
      <stop offset="0" stop-color="#2f4a52"/>
      <stop offset="1" stop-color="#1d2f36"/>
    </linearGradient>
  </defs>
  <rect width="120" height="120" fill="url(#yg)"/>
  <circle cx="60" cy="50" r="20" fill="#d8a878"/>
  <path d="M40 46c0-13 9-22 20-22s20 9 20 22c0 3-1 6-1 6-5-7-33-7-38 0 0 0-1-3-1-6z" fill="#1c1410"/>
  <path d="M28 104c2-16 15-26 32-26s30 10 32 26z" fill="#33454d"/>
  <path d="M48 78l12 8 12-8v6l-12 9-12-9z" fill="#dfe7ea"/>
</svg>
